<svg width="38" height="38" viewBox="0 0 38 38" fill="none" xmlns="http://www.w3.org/2000/svg">
<g id="stock-svgrepo-com 1" clip-path="url(#clip0_41_1051)">
<g id="&#233;&#161;&#181;&#233;&#157;&#162;-1">
<g id="Business">
<g id="stock_fill">
<path id="&#229;&#189;&#162;&#231;&#138;&#182;" d="M12.9221 3.37085C13.7742 3.37085 14.4649 4.06161 14.4649 4.91369V7.99936C17.0212 7.99936 19.0934 10.0716 19.0934 12.6279V21.8849C19.0934 24.4412 17.0212 26.5134 14.4649 26.5134V32.6847C14.4649 33.5368 13.7742 34.2276 12.9221 34.2276C12.07 34.2276 11.3792 33.5368 11.3792 32.6847V26.5134C8.82299 26.5134 6.75073 24.4412 6.75073 21.8849V12.6279C6.75073 10.0716 8.82299 7.99936 11.3792 7.99936V4.91369C11.3792 4.06161 12.07 3.37085 12.9221 3.37085ZM26.8076 3.37085C27.5988 3.37085 28.2509 3.96645 28.34 4.73376L28.3504 4.91369V11.085C30.8155 11.085 32.8303 13.0119 32.9711 15.4416L32.9789 15.7135V24.9705C32.9789 27.4356 31.0521 29.4504 28.6224 29.5912L28.3504 29.5991V32.6847C28.3504 33.5368 27.6597 34.2276 26.8076 34.2276C26.0163 34.2276 25.3643 33.632 25.2751 32.8647L25.2648 32.6847V29.5991C22.7997 29.5991 20.7849 27.6722 20.6441 25.2425L20.6363 24.9705V15.7135C20.6363 13.2486 22.5631 11.2337 24.9928 11.0929L25.2648 11.085V4.91369C25.2648 4.06161 25.9555 3.37085 26.8076 3.37085Z" fill="#FFB732"/>
</g>
</g>
</g>
</g>
<defs>
<clipPath id="clip0_41_1051">
<rect width="37.0281" height="37.0281" fill="white" transform="translate(0.579346 0.285156)"/>
</clipPath>
</defs>
</svg>
