<svg width="38" height="38" viewBox="0 0 38 38" fill="none" xmlns="http://www.w3.org/2000/svg">
<g id="chart-line-svgrepo-com 1" clip-path="url(#clip0_41_1062)">
<g id="&#233;&#161;&#181;&#233;&#157;&#162;-1">
<g id="Business">
<g id="chart_line_fill">
<path id="&#229;&#189;&#162;&#231;&#138;&#182;" d="M6.42851 5.65698C7.63146 5.65698 8.62003 6.57479 8.73217 7.74836L8.74276 7.97124V27.2567H31.1139C32.392 27.2567 33.4281 28.2928 33.4281 29.5709C33.4281 30.7738 32.5103 31.7624 31.3367 31.8746L31.1139 31.8852H6.42851C5.22556 31.8852 4.23699 30.9673 4.12485 29.7938L4.11426 29.5709V7.97124C4.11426 6.6931 5.15038 5.65698 6.42851 5.65698ZM31.4123 10.0047C33.4878 10.0047 34.5271 12.5142 33.0595 13.9817L24.4673 22.5739C23.5034 23.538 21.9403 23.538 20.9764 22.5739L17.2672 18.8647L13.449 22.6831C12.5452 23.5869 11.0799 23.5869 10.1761 22.6831C9.27233 21.7793 9.2723 20.3141 10.1761 19.4103L15.5216 14.0645C16.4856 13.1005 18.0487 13.1005 19.0126 14.0645L22.7219 17.7738L26.0879 14.4077C25.3093 14.0351 24.7714 13.2398 24.7714 12.319C24.7714 11.0408 25.8076 10.0047 27.0857 10.0047H31.4123Z" fill="#FFB732"/>
</g>
</g>
</g>
</g>
<defs>
<clipPath id="clip0_41_1062">
<rect width="37.0281" height="37.0281" fill="white" transform="translate(0.25708 0.25708)"/>
</clipPath>
</defs>
</svg>
