<svg width="38" height="38" viewBox="0 0 38 38" fill="none" xmlns="http://www.w3.org/2000/svg">
<g id="buy-crypto-svgrepo-com 1">
<path id="Vector" d="M34.0033 13.3993C34.0033 18.4289 30.3005 22.5792 25.4868 23.3043V23.2117C25.0086 17.2255 20.1486 12.3656 14.1161 11.8873H14.0698C14.795 7.07366 18.9452 3.37085 23.9749 3.37085C29.5136 3.37085 34.0033 7.8605 34.0033 13.3993Z" fill="#FFB732"/>
<path id="Vector_2" d="M23.1725 23.3968C22.7868 18.506 18.868 14.5872 13.9772 14.2015C13.7149 14.1861 13.4372 14.1707 13.1749 14.1707C7.63614 14.1707 3.14648 18.6603 3.14648 24.1991C3.14648 29.7379 7.63614 34.2275 13.1749 34.2275C18.7137 34.2275 23.2033 29.7379 23.2033 24.1991C23.2033 23.9368 23.1879 23.6591 23.1725 23.3968ZM14.5326 25.5568L13.1749 28.0562L11.8172 25.5568L9.31783 24.1991L11.8172 22.8414L13.1749 20.342L14.5326 22.8414L17.032 24.1991L14.5326 25.5568Z" fill="#FFB732"/>
</g>
</svg>
