<svg width="36" height="35" viewBox="0 0 36 35" fill="none" xmlns="http://www.w3.org/2000/svg">
<g id="briefcase">
<path id="Vector" d="M29.4713 10.3933H6.52893C4.94509 10.3933 3.66113 11.6773 3.66113 13.2611V27.6001C3.66113 29.1839 4.94509 30.4679 6.52893 30.4679H29.4713C31.0551 30.4679 32.3391 29.1839 32.3391 27.6001V13.2611C32.3391 11.6773 31.0551 10.3933 29.4713 10.3933Z" stroke="#F4B100" stroke-width="2.8678" stroke-linecap="round" stroke-linejoin="round"/>
<path id="Vector_2" d="M23.7356 30.4679V7.52551C23.7356 6.76492 23.4334 6.03549 22.8956 5.49767C22.3578 4.95986 21.6284 4.65771 20.8678 4.65771H15.1322C14.3716 4.65771 13.6422 4.95986 13.1044 5.49767C12.5665 6.03549 12.2644 6.76492 12.2644 7.52551V30.4679" stroke="#F4B100" stroke-width="2.8678" stroke-linecap="round" stroke-linejoin="round"/>
</g>
</svg>
