<svg width="35" height="35" viewBox="0 0 35 35" fill="none" xmlns="http://www.w3.org/2000/svg">
<g id="dollar-sign" clip-path="url(#clip0_41_854)">
<path id="Vector" d="M17.5 1.78979V33.3356" stroke="#F4B100" stroke-width="2.8678" stroke-linecap="round" stroke-linejoin="round"/>
<path id="Vector_2" d="M24.6694 7.52539H13.9151C12.5841 7.52539 11.3076 8.05414 10.3664 8.99532C9.42523 9.9365 8.89648 11.213 8.89648 12.544C8.89648 13.8751 9.42523 15.1516 10.3664 16.0928C11.3076 17.0339 12.5841 17.5627 13.9151 17.5627H21.0846C22.4156 17.5627 23.6922 18.0914 24.6333 19.0326C25.5745 19.9738 26.1033 21.2503 26.1033 22.5813C26.1033 23.9123 25.5745 25.1889 24.6333 26.13C23.6922 27.0712 22.4156 27.6 21.0846 27.6H8.89648" stroke="#F4B100" stroke-width="2.8678" stroke-linecap="round" stroke-linejoin="round"/>
</g>
<defs>
<clipPath id="clip0_41_854">
<rect width="34.4136" height="34.4136" fill="white" transform="translate(0.293213 0.355957)"/>
</clipPath>
</defs>
</svg>
